<?xml version="1.0"?>
<!DOCTYPE svg PUBLIC "-//W3C//DTD SVG 1.1//EN"
"http://www.w3.org/Graphics/SVG/1.1/DTD/svg11.dtd">
<svg version="1.1" xmlns="http://www.w3.org/2000/svg"
xmlns:xlink="http://www.w3.org/1999/xlink"
width="600px" height="600px"
viewBox="0 0 3 2"
preserveAspectRatio="xMidYMid">
<defs>
    <g id="multi"><animateTransform
      attributeName="transform"
      type="rotate"
      from="0 1.66 0.4"
      to="360 1.66 0.4"
      dur="34s"
      repeatCount="indefinite"
    /> <g transform="scale(0.2,0.2) translate(8.3,2)"><polygon fill="none" stroke="grey" stroke-width="0.01" points="       
                1,                      0,
    0.9396926207859084,     0.3420201433256687,
     0.766044443118978,     0.6427876096865393,
    0.5000000000000001,     0.8660254037844386,
   0.17364817766693041,      0.984807753012208,
   -0.1736481776669303,      0.984807753012208,
   -0.4999999999999998,     0.8660254037844387,
   -0.7660444431189779,     0.6427876096865395,
   -0.9396926207859083,     0.3420201433256689,
                    -1, 1.2246467991473532e-16,
   -0.9396926207859084,   -0.34202014332566866,
   -0.7660444431189783,    -0.6427876096865389,
   -0.5000000000000004,    -0.8660254037844385,
  -0.17364817766693033,     -0.984807753012208,
   0.17364817766692997,    -0.9848077530122081,
   0.49999999999999933,     -0.866025403784439,
    0.7660444431189778,    -0.6427876096865396,
    0.9396926207859084,    -0.3420201433256686" />
    <line stroke-width="0.01" stroke="grey" x1="1" x2="-1" y1="0" y2="0" />
     <line stroke-width="0.01" stroke="grey" x1="0.93" x2="-0.93" y1="0.34" y2="-0.34" />
      <line stroke-width="0.01" stroke="grey" x1="0.75" x2="-0.76" y1="0.64" y2="-0.64" />
       <line stroke-width="0.01" stroke="grey" x1="0.5" x2="-0.5" y1="0.86" y2="-0.86" />
        <line stroke-width="0.01" stroke="grey" x1="0.17" x2="-0.17" y1="0.98" y2="-0.98" />
        <line stroke-width="0.01" stroke="grey" x1="-0.17" x2="0.17" y1="0.98" y2="-0.98" />
         <line stroke-width="0.01" stroke="grey" x1="-0.5" x2="0.5" y1="0.86" y2="-0.86" />
          <line stroke-width="0.01" stroke="grey" x1="-0.76" x2="0.76" y1="0.64" y2="-0.64" />
           <line stroke-width="0.01" stroke="grey" x1="-0.93" x2="0.93" y1="0.34" y2="-0.34" /></g>
    </g>


    <g id="tri"><polygon points="1.9,1 2.1,1 2,0.5 1,"/></g>
    
    <g id="line"><line x1="1.65" y1="0.4" x2="2.35" y2="0.6"
/></g>
</defs>

<use xlink:href="#tri" fill="green" transform="scale(1,1) translate(0,0)"/>
<use xlink:href="#line" stroke-width="0.02" stroke="red" transform="scale(1,1) translate(0,0)"/>
<use xlink:href="#multi" />
<use xlink:href="#multi" transform="scale(1,1) translate(0.68,0.19)" />


<use xlink:href="#tri" fill="blue" transform="scale(1.4,1.4) translate(-0.6,0.8)"/>
<use xlink:href="#line" stroke-width="0.02" stroke="red" transform="scale(1.4,1.4) translate(-0.6,0.8)"/>
<use xlink:href="#multi" transform="scale(1.4,1.4) translate(-0.6,0.8)" />
<use xlink:href="#multi" transform="scale(1.4,1.4) translate(0.08,1)" />


<use xlink:href="#tri" fill="purple" transform="scale(1.1,1.1) translate(-1.4,0.2)"/>
<use xlink:href="#line" stroke-width="0.02" stroke="red" transform="scale(1.1,1.1) translate(-1.4,0.2)"/>
<use xlink:href="#multi" transform="scale(1.1,1.1) translate(-1.4,0.2)"/>
<use xlink:href="#multi" transform="scale(1.1,1.1) translate(-0.72,0.39)" />
</svg>